<svg width="705" height="349" viewBox="0 0 705 349" fill="none" xmlns="http://www.w3.org/2000/svg">
<rect width="705" height="349" fill="white"/>
<path d="M508.065 10.043C506.674 10.0217 506.674 10.0217 505.256 10C502.502 10.2305 502.502 10.2305 500.194 11.2578C496.991 12.4152 494.583 12.2723 491.221 12.0999C482.087 11.6346 476.031 12.6522 468.503 18.2305C467.716 18.7719 466.93 19.3133 466.12 19.8711C459.716 24.5169 452.437 30.6814 449.503 38.2305C448.976 41.9537 448.941 45.5098 449.503 49.2305C451.94 52.3555 451.94 52.3555 454.503 54.2305C454.833 54.5605 455.163 54.8905 455.503 55.2305C464.674 55.8856 471.628 52.9932 479.459 48.4141C481.439 47.2673 483.447 46.2328 485.502 45.2305C485.502 46.8805 485.502 48.5305 485.502 50.2305C484.92 50.4612 484.337 50.692 483.737 50.9297C480.989 52.0227 478.246 53.1266 475.502 54.2305C474.587 54.5927 473.672 54.9549 472.729 55.3281C465.984 58.0537 459.493 61.1517 453.022 64.4639C449.569 66.2271 446.134 67.8663 442.503 69.2305C442.253 68.6607 442.003 68.0909 441.745 67.5039C437.09 58.984 430.963 54.3767 422.003 51.2305C410.945 49.3274 404.503 52.7305 394.578 57.4922C381.042 61.8354 373.871 67.0073 367.191 79.7305C365.974 84.1562 365.445 88.1097 367.519 92.2656C369.692 95.4534 370.752 96.9798 374.504 98.2305C380.943 98.9083 384.615 97.5299 390.207 94.3242C392.681 92.9438 392.681 92.9438 396.503 93.2305C398.071 94.5605 398.071 94.5605 399.253 96.418C399.681 97.0097 400.109 97.6013 400.55 98.2109C401.776 100.809 401.961 102.391 401.503 105.23C399.755 107.109 399.755 107.109 397.378 108.605C390.625 113.514 385.292 119.217 382.504 127.23C382.116 131.316 382.499 135.348 382.836 139.428C383.155 143.936 383.155 143.936 381.242 147.836C379.449 149.365 379.449 149.365 376.504 151.23C372.809 155.119 372.123 158.391 371.816 163.605C372.009 169.452 373.224 172.601 377.429 176.645C384.106 181.749 390.159 183.391 398.503 183.23C395.705 187.037 392.634 189.942 388.992 192.898C386.375 195.24 386.488 196.474 386.253 200.105C386.28 203.705 386.885 205.612 389.503 208.23C389.094 208.666 388.684 209.102 388.261 209.551C382.75 215.642 381.081 220.617 381.242 228.832C381.6 232.112 382.779 234.444 384.504 237.23C384.895 238.014 385.287 238.798 385.691 239.605C385.959 240.142 386.227 240.678 386.503 241.23C382.52 239.068 373.114 237.518 370.004 234.23C369.344 234.56 368.504 235.435 368.004 235.935C372.144 241.712 382.477 244.418 388.503 248.23C387.105 251.639 385.653 253.104 382.504 254.98C381.802 255.408 381.101 255.836 380.379 256.277C378.557 257.382 378.557 257.382 376.504 257.23C376.238 256.699 375.973 256.168 375.699 255.621C372.504 249.23 372.504 249.23 371.41 247.199C370.079 244.307 370.366 237.371 370.004 234.23C365.504 235.851 367.03 244.848 367.504 249.23C368.51 254.023 369.738 258.759 371.187 263.438C371.688 266.273 370 267.871 368.504 270.23C366.098 277.886 366.914 286.142 370.504 293.23C373.057 297.808 376.829 301.402 381.316 303.668C382.209 304.12 383.103 304.573 384.023 305.039C388.028 306.963 391.036 307.366 395.441 307.355C396.481 307.358 397.521 307.361 398.593 307.363C401.08 307.25 403.134 306.95 405.503 306.23C405.56 306.762 405.617 307.293 405.675 307.84C406.896 311.366 409.261 313.787 411.753 316.48C412.284 317.055 412.815 317.629 413.361 318.22C418.719 323.795 424.602 327.706 431.503 331.23C432.573 331.789 433.643 332.347 434.745 332.922C439.565 334.6 443.754 334.634 448.815 334.543C449.701 334.546 450.588 334.549 451.501 334.553C456.974 334.509 461.964 333.876 467.276 332.541C470.584 332.08 472.964 333.114 476.022 334.293C498.93 342.951 526.042 339.272 548.127 329.918C559.232 324.882 570.925 316.698 578.286 306.84C579.017 306.309 579.748 305.778 580.501 305.23C583.943 305.838 583.943 305.838 586.289 306.614C597.454 309.726 610.515 307.659 620.501 302.23C623.412 300.45 625.964 298.508 628.501 296.23C629.081 295.73 629.661 295.23 630.259 294.715C638.727 286.892 644.557 277.024 647.333 265.895C648.549 262.077 650.132 259.267 652.313 255.918C660.826 242.467 660.826 242.467 662.457 235.195C663.456 230.914 664.489 227.168 666.5 223.23C670.652 220.664 674.731 220.001 679.5 219.23C681.058 218.714 682.604 218.158 684.125 217.543C686.945 216.446 688 216.23 691 213.73C689.22 212.247 686.873 210.344 685 208.98C683.42 207.823 681.841 206.665 680.282 205.479C678.5 204.23 678.5 204.23 676.337 203.119C673.836 201.687 672.262 200.527 670.5 198.23C669.569 193.954 669.542 189.808 669.642 185.442C669.719 181.939 669.664 178.437 669.625 174.934C669.621 174.253 669.617 173.573 669.613 172.871C669.508 161.698 666.908 151.478 663.075 141C662.221 136.884 663.463 134.841 665.687 131.389C667.117 129.273 668.582 127.187 670.063 125.105C671.067 123.689 672.069 122.269 673.067 120.848C673.509 120.225 673.952 119.602 674.409 118.96C675.5 117.23 675.5 117.23 676.5 114.23C664.62 113.24 664.62 113.24 652.5 112.23C651.51 109.92 650.52 107.61 649.5 105.23C643.774 93.9625 636.576 83.9059 628.501 74.2305C627.867 73.4545 627.232 72.6784 626.579 71.8789C624.355 69.2042 622.413 67.1722 619.501 65.2305C619.84 58.1834 621.273 51.6295 623.129 44.8535C624.102 41.2228 624.726 37.9937 624.501 34.2305C618.892 35.1068 613.767 37.2362 608.599 39.5039C597.325 44.423 591.664 44.7372 580.283 40.457C572.136 37.8144 563.593 37.9479 555.103 37.625C548.245 37.3898 548.245 37.3898 541.502 36.2305C540.274 33.9979 540.274 33.9979 539.502 31.2305C534.241 22.1248 525.684 13.9415 515.545 10.582C513.028 10.1489 510.618 10.0607 508.065 10.043Z" fill="#232122"/>
<path d="M528.489 156.23C528.819 157.22 529.149 158.21 529.489 159.23C530.624 159.622 531.758 160.014 532.927 160.418C542.037 163.569 549.534 171.119 554.489 179.23C556.358 183.162 557.989 187.145 559.489 191.23C554.165 176.73 545.033 172.087 540.177 168.543C532.213 164.654 525.607 162.528 516.677 162.668C515.718 162.675 514.759 162.681 513.771 162.688C505.721 162.904 499.739 164.712 492.49 168.23C491.493 168.551 490.497 168.872 489.47 169.203C479.993 172.47 472.009 179.817 464.49 186.23C465.233 185.055 465.233 185.055 465.99 183.855C467.49 181.23 467.49 181.23 467.49 179.23C455.978 177.902 446.835 185.302 438.174 192.082C436.846 193.146 436.846 193.146 435.49 194.23C434.821 194.733 434.152 195.236 433.463 195.754C423.288 203.737 417.583 215.008 414.491 227.23C414.161 222.94 413.831 218.65 413.491 214.23C411.903 213.921 410.314 213.612 408.678 213.293C405.846 212.741 403.233 212.145 400.491 211.23C397.178 210.605 397.178 210.605 393.491 211.23C387.923 217.382 386.093 222.911 386.132 231.043C386.678 235.886 388.736 239.298 391.491 243.23C392.151 244.22 392.811 245.21 393.491 246.23C394.811 246.23 396.131 246.23 397.491 246.23C398.22 243.557 400.365 228.73 403.003 228.73C403.413 229.345 405.311 233.46 405.733 234.094C409.112 239.162 409.112 239.162 412.491 244.23C416.603 243.845 420.342 242.547 423.823 240.359C427.011 236.289 426.453 230.824 426.455 225.848C426.305 222.275 426.305 222.275 427.491 219.23C428.151 219.23 428.811 219.23 429.491 219.23C430.428 220.671 431.364 222.113 432.287 223.563C434.337 226.405 436.626 228.202 439.49 230.23C440.81 230.23 442.13 230.23 443.49 230.23C443.616 223.827 443.616 223.827 442.99 220.855C441.191 211.406 443.84 203.211 446.49 194.23C449.174 196.708 451.111 199.479 453.178 202.48C457.422 208.382 462.465 214.603 469.49 217.23C471.74 216.855 471.74 216.855 473.49 216.23C473.62 215.14 473.62 215.14 473.752 214.027C475.75 199.731 480.868 189.806 491.49 180.23C494.381 178.216 497.271 176.646 500.49 175.23C501.067 174.872 503.502 173.276 506.502 172.73C517.502 170.73 526.212 172.821 534.153 180.93C537.107 183.806 539.389 186.229 542.177 189.605C554.179 205.432 556.001 222.033 556.489 241.23C554.502 233.73 555.002 231.73 554.502 229.23C553.855 225.999 554.502 226.73 552.489 224.23C548.477 226.047 545.443 228.651 542.099 231.477C534.159 236.813 526.437 236.641 517.226 236.512C514.995 236.481 512.764 236.471 510.533 236.465C504.463 236.426 498.541 236.271 492.516 235.459C489.062 235.069 485.615 235.048 482.142 235.027C480.981 235.019 480.981 235.019 479.796 235.01C478.165 235.001 476.533 234.994 474.902 234.99C472.458 234.981 470.014 234.95 467.57 234.918C453.945 234.823 441.073 235.88 428.991 242.793C427.802 243.446 427.802 243.446 426.589 244.113C415.615 250.244 405.22 257.268 395.491 265.23C397.582 261.901 399.41 259.309 402.241 256.543C404.491 254.23 404.491 254.23 404.491 251.23C401.478 252.194 398.483 253.203 395.491 254.23C394.336 254.622 393.181 255.014 391.991 255.418C385.009 259.034 378.425 264.541 375.827 272.184C374.782 278.552 374.267 285.04 377.679 290.73C380.675 294.822 384.303 297.439 388.491 300.23C404.882 302.36 415.998 297.144 428.991 287.668C433.631 284.017 438.134 280.216 442.49 276.23C433.768 288.086 423.345 296.092 410.491 303.23C414.754 315.022 425.43 320.988 436.24 326.168C443.294 329.008 450.003 328.691 457.49 328.23C457.49 327.57 457.49 326.91 457.49 326.23C456.728 325.879 455.967 325.527 455.182 325.164C448.936 322.178 443.281 319.207 437.99 314.73C435.867 313.121 435.49 313.23 434.49 311.23C435.003 311.512 435.516 311.794 436.044 312.085C453.899 321.848 453.899 321.848 462.752 324.414C465.016 325.089 467.145 325.862 469.342 326.723C481.25 331.225 493.902 331.509 506.49 331.543C507.718 331.548 508.946 331.554 510.211 331.559C518.997 331.491 527.391 330.839 535.552 327.355C536.383 327.001 537.215 326.646 538.071 326.281C538.869 325.934 539.667 325.588 540.489 325.23C541.194 324.956 541.899 324.681 542.626 324.398C554.357 319.65 564.49 312.002 573.489 303.23C572.074 299.822 571.777 299.355 568.176 297.793C567.252 297.445 567.252 297.445 566.309 297.09C563.446 295.738 561.57 293.564 559.489 291.23C559.951 291.545 560.412 291.86 560.887 292.184C574.539 301.141 589.37 303.845 605.488 302.23C616.874 299.8 625.199 293.183 631.863 283.793C641.222 268.565 643.083 250.081 639.001 232.83C633.948 213.713 625.358 198.313 611.488 184.23C610.73 183.448 609.973 182.666 609.192 181.859C596.645 169.723 579.771 160.457 562.512 157.59C558.501 156.73 555.502 156.016 551.502 155.73C537.502 154.73 536.673 153.804 528.489 156.23Z" fill="white"/>
<path d="M496.19 18.3555C491.637 20.4 487.549 23.336 483.502 26.2305C485.152 23.9205 486.802 21.6105 488.502 19.2305C483.547 17.9916 480.871 18.9366 476.502 21.2305C468.796 26.1839 459.929 32.2321 456.792 41.2812C456.44 43.168 456.44 43.168 456.503 46.2305C458.503 48.2305 458.503 48.2305 461.167 48.5898C465.313 48.1432 468.331 46.5259 471.877 44.4805C473.217 43.7406 474.557 43.001 475.897 42.2617C477.855 41.1619 479.81 40.0562 481.764 38.9492C492.031 33.4257 503.896 30.5993 515.502 32.2305C520.618 33.9543 523.473 36.6287 526.002 41.3555C527.186 43.9789 527.502 45.2808 527.502 48.2305C527.138 47.6994 526.775 47.1683 526.4 46.6211C523.25 42.1945 520.579 38.487 515.502 36.2305C507.183 35.0577 500.05 36.7045 492.502 40.2305C491.502 41.2305 491.502 41.2305 491.377 44.2305C491.499 47.1473 492.737 49.3446 493.065 52.293C493.209 53.5923 493.353 54.8917 493.502 56.2305C495.107 56.089 496.711 55.9421 498.315 55.793C499.208 55.7118 500.101 55.6305 501.022 55.5469C514.713 53.8004 524.98 54.8045 536.502 63.2305C538.746 65.4087 540.654 67.7119 542.502 70.2305C543.12 71.0348 543.739 71.8392 544.377 72.668C544.933 73.4414 544.933 73.4414 545.502 74.2305C545.172 74.5605 544.842 74.8905 544.502 75.2305C543.736 74.4512 543.736 74.4512 542.955 73.6562C532.696 63.8159 521.415 60.7063 507.553 60.9492C502.288 61.1928 498.126 62.7635 493.502 65.2305C492.793 65.5579 492.084 65.8853 491.354 66.2227C479.156 72.2557 449.443 108.73 442.503 120.23C444.469 115.881 446.473 111.551 448.503 107.23C448.813 106.568 449.123 105.905 449.443 105.222C453.687 96.2287 458.18 87.9783 464.503 80.2305C465.224 79.3449 465.946 78.4593 466.69 77.5469C470.965 72.5515 475.173 68.7252 480.85 65.3867C483.571 63.4825 483.97 62.3623 487.502 60.9492C487.502 60.2892 487.502 58.9105 487.502 58.2305C481.915 58.8035 477.498 60.8299 472.502 63.2305C471.663 63.6185 470.824 64.0065 469.96 64.4062C444.151 76.7463 417.081 93.5159 404.503 120.23C404.132 121.554 403.787 122.886 403.503 124.23C404.166 118.168 404.166 118.168 405.503 112.23C398.559 114.462 395.575 120.192 391.628 125.98C387.749 133.738 388.397 145.948 390.14 154.27C390.833 156.291 391.657 158.268 392.503 160.23C392.833 161.55 393.163 162.87 393.503 164.23C390.038 158.785 390.038 158.785 386.503 153.23C381.847 154.395 381.003 155.38 378.504 159.207C376.787 162.681 376.374 165.495 377.504 169.23C382.006 176.229 387.532 179.891 395.441 181.996C400.125 182.528 403.136 181.044 406.816 178.293C411.018 175.353 414.479 174.144 419.503 173.23C419.503 173.89 419.503 174.55 419.503 175.23C417.853 175.89 416.203 176.55 414.503 177.23C414.503 177.89 414.503 178.55 414.503 179.23C415.456 179.268 416.408 179.305 417.39 179.344C418.644 179.409 419.898 179.475 421.191 179.543C423.053 179.63 423.053 179.63 424.952 179.719C430.002 180.446 433.117 182.488 436.503 186.23C437.516 185.706 437.516 185.706 438.55 185.172C439.442 184.717 440.334 184.262 441.253 183.793C442.575 183.114 442.575 183.114 443.925 182.422C447.679 180.687 450.638 180.112 454.753 180.23C459.099 180.288 463.204 179.856 467.503 179.23C465.523 182.2 465.523 182.2 463.503 185.23C463.833 185.89 464.163 186.55 464.503 187.23C465.241 186.59 465.98 185.949 466.741 185.289C479.521 174.319 479.521 174.319 494.92 167.934C497.502 167.23 497.502 167.23 501.127 165.684C543.865 149.438 523.002 154.73 528.502 156.23C532.292 152.819 539.502 153.23 543.502 153.23C571.395 154.837 607.001 165.23 623.501 183.23C625.667 156.679 615.386 127.209 602.501 104.23C602.148 103.599 601.795 102.968 601.431 102.318C593.299 87.9705 583.951 75.0963 572.501 63.2305C567.052 57.3592 560.957 52.3293 554.552 47.5273C551.628 45.3258 548.375 41.2305 544.502 41.2305C545.162 43.8705 545.822 46.5105 546.502 49.2305C545.945 48.3964 545.388 47.5624 544.814 46.7031C533.678 30.1957 518.706 10.668 496.19 18.3555Z" fill="#939397"/>
<path d="M529.502 73.2305C518.199 72.1483 510.037 75.3143 501.252 82.418C493.337 90.0368 487.908 99.6011 482.815 109.23C482.002 110.735 482.002 110.735 481.172 112.27C471.503 130.326 471.503 130.326 471.503 135.23C470.843 135.23 470.183 135.23 469.503 135.23C468.995 136.281 468.487 137.332 467.963 138.414C460.942 153.506 460.942 153.506 449.503 165.23C444.81 166.795 440.388 167.05 435.503 166.23C430.471 163.316 426.264 159.293 423.503 154.23C422.843 154.23 423.183 154.23 422.503 154.23C424.604 161.761 426.831 168.083 433.815 172.168C442.084 174.55 449.858 173.053 457.503 169.23C461.503 167.934 463.45 168.993 465.413 169.574C468.849 170.304 472 170.335 475.502 170.23C474.888 170.978 474.273 171.726 473.639 172.496C472.831 173.481 472.023 174.466 471.19 175.48C470.39 176.455 469.589 177.43 468.764 178.434C466.958 180.667 465.204 182.917 463.503 185.23C463.833 185.89 464.163 186.55 464.503 187.23C465.241 186.59 465.98 185.949 466.741 185.289C479.521 174.319 479.521 174.319 494.92 167.934C497.502 167.23 497.502 167.23 501.127 165.684C506.15 163.774 510.988 163.696 516.314 163.73C517.288 163.734 518.261 163.738 519.264 163.741C526.618 163.911 532.285 165.125 538.502 169.23C539.574 169.849 540.647 170.468 541.752 171.105C548.695 176.471 556.68 182.767 559.502 191.23C560.162 191.23 558.822 191.23 559.502 191.23C557.591 179.988 550.648 170.805 541.615 164.082C537.734 161.543 530.493 160.213 528.502 156.23C531.142 155.9 533.282 154.57 536.002 154.23C536.002 153.24 536.502 153.25 536.502 152.23C538.105 150.601 538.105 150.601 540.189 149.043C545.906 144.247 549.784 138.571 551.502 131.23C551.577 128.898 551.595 126.562 551.502 124.23C550.842 124.23 550.182 124.23 549.502 124.23C549.173 125.004 548.844 125.777 548.506 126.574C542.96 138.717 535.289 144.414 523.502 150.23C523.972 149.576 524.443 148.921 524.928 148.246C533.347 135.905 535.103 123.006 533.115 108.387C531.885 102.485 530.053 99.0574 527.502 95.2305C524.898 91.3248 520.256 85.4842 517.002 82.2305C518.683 81.0331 520.355 79.8259 522.045 78.6406C524.581 77.1848 526.624 76.6343 529.502 76.2305C529.502 75.2405 529.502 74.2505 529.502 73.2305Z" fill="#232223"/>
<path d="M514.502 85.2305C511.806 85.408 510.682 86.0608 508.713 87.918C500.088 98.7821 491.368 112.153 486.502 125.23C486.832 126.22 487.162 127.21 487.502 128.23C490.142 128.23 492.782 128.23 495.502 128.23C496.162 126.91 496.822 125.59 497.502 124.23C498.492 124.23 499.482 124.23 500.502 124.23C501.118 132.967 500.983 140.081 495.502 147.23C488.864 153.706 483.151 157.293 473.815 157.793C467.699 158.132 467.699 158.132 465.503 159.23C465.503 160.22 465.503 161.21 465.503 162.23C477.892 165.917 489.556 162.145 500.698 156.656C511.992 150.46 520.269 143.619 524.502 131.23C524.819 130.344 525.136 129.457 525.463 128.543C528.84 117.886 528.741 108.154 524.006 97.9688C521.394 93.2132 518.335 89.0632 514.502 85.2305Z" fill="white"/>
<path d="M529.502 73.2305C518.199 72.1483 510.037 75.3143 501.252 82.418C493.337 90.0368 487.908 99.6011 482.815 109.23C482.273 110.233 481.731 111.236 481.172 112.27C476.939 120.174 466.638 134.289 468.003 143.668C468.548 147.551 467.986 149.653 466.503 153.23C465.183 152.9 463.863 152.57 462.503 152.23C462.998 154.21 462.998 154.21 463.503 156.23C467.397 157.472 471.329 157.487 475.378 157.543C476.42 157.586 476.42 157.586 477.483 157.631C482.712 157.695 485.452 156.441 489.502 153.23C490.227 152.701 490.951 152.171 491.698 151.625C496.699 147.525 499.93 143.591 501.502 137.23C502.352 127.93 502.352 127.93 500.502 124.23C499.512 124.23 498.522 124.23 497.502 124.23C496.842 125.22 496.182 126.21 495.502 127.23C493.525 127.593 493.525 127.593 491.377 127.418C490.099 127.356 488.82 127.294 487.502 127.23C495.02 107.486 500.065 83.5781 518.502 78.6406C519.279 78.0954 518.502 78.2305 522.002 77.7305C524.538 76.2747 526.624 76.6343 529.502 76.2305C529.502 75.2405 529.502 74.2505 529.502 73.2305Z" fill="#222023"/>
<path d="M398.066 62.4805C394.21 65.1136 391.458 68.6458 388.503 72.2305C388.813 71.5086 391.685 66.4742 392.003 65.7305C393.718 61.7305 394.503 61.5448 392.503 62.2305C382.08 65.8043 372.461 77.8351 373.004 89.2305C375.004 91.2305 376.504 91.2305 380.066 91.668C386.555 91.4703 391.275 87.6604 396.578 84.2578C403.369 79.9581 409.8 76.5768 417.503 74.2305C411.99 77.7749 405.602 80.8322 400.503 86.2305C401.651 88.7175 402.907 90.7981 404.503 93.043C406.689 96.5262 407.552 99.2674 408.503 103.23C409.493 103.23 410.483 103.23 411.503 103.23C413.195 101.176 413.195 101.176 415.066 98.3555C420.738 90.2791 427.11 82.9101 436.007 78.3633C437.503 77.2305 437.503 77.2305 438.393 75.3008C438.503 73.2305 438.503 73.2305 437.358 71.5273C436.808 71.0169 436.257 70.5064 435.69 69.9805C432.421 66.8429 428.936 63.5577 425.128 61.1055C424.337 60.5873 423.545 60.0691 422.73 59.5352C413.469 54.1086 406.003 55.7305 398.066 62.4805Z" fill="#939395"/>
<path d="M368.504 238.23C365.976 242.022 367.03 244.848 367.504 249.23C368.51 254.023 369.738 258.759 371.187 263.438C371.688 266.273 370 267.871 368.504 270.23C366.098 277.886 366.914 286.142 370.504 293.23C373.026 297.753 376.629 301.301 381.316 303.668C382.209 304.12 383.103 304.573 384.023 305.039C388.131 307.012 391.173 307.342 395.691 307.293C396.778 307.284 397.864 307.275 398.984 307.266C399.815 307.254 400.647 306.742 401.503 306.73C401.503 306.4 401.503 306.57 401.503 306.23C398.203 306.23 394.903 306.23 391.503 306.23C391.833 304.91 392.163 303.59 392.503 302.23C396.133 301.9 399.763 301.57 403.503 301.23C403.503 300.9 403.503 300.57 403.503 300.23C402.513 300.228 401.523 300.225 400.503 300.223C390.46 300.011 390.46 300.011 382.023 294.949C381.522 294.382 381.02 293.815 380.504 293.23C380.054 292.725 379.604 292.22 379.14 291.699C375.429 286.496 375.82 280.35 376.504 274.23C378.117 267.505 382.329 261.514 388.003 257.73C387.343 256.41 387.183 255.59 386.503 254.23C382.946 254.84 379.821 255.809 376.504 257.23C376.238 256.699 375.973 256.168 375.699 255.621C372.504 249.23 372.504 249.23 371.41 247.199C370.079 244.307 368.866 241.371 368.504 238.23Z" fill="#242225"/>
<path d="M447.003 197.73C446.171 202.913 445.231 206.483 445.128 211.73C445.09 212.451 445.053 213.172 445.015 213.914C444.938 218.628 445.689 222.21 448.693 225.94C452.553 228.693 457.285 227.932 461.815 227.668C463.355 227.621 463.355 227.621 464.926 227.572C467.455 227.49 469.977 227.375 472.503 227.23C471.002 224.026 469.839 222.508 466.878 220.543C459.623 215.73 454.503 210.23 447.003 197.73Z" fill="white"/>
<path d="M498.502 185.23C494.519 185.607 492.638 187.753 489.94 190.543C488.793 191.713 488.793 191.713 487.623 192.906C482.479 198.543 482.479 198.543 482.569 201.199C483.788 203.852 485.435 205.613 487.44 207.73C490.003 210.447 492.01 212.792 493.502 216.23C494.162 216.23 494.822 216.23 495.502 216.23C499.877 209.668 499.682 201.828 499.69 194.168C499.69 193.405 499.691 192.643 499.692 191.857C499.636 186.365 499.636 186.365 498.502 185.23Z" fill="white"/>
<path d="M515.502 179.23C510.762 179.358 505.628 179.781 501.502 182.23C500.709 184.051 500.709 184.051 500.502 186.23C501.576 188.203 501.576 188.203 503.19 190.293C506.749 195.271 508.659 200.431 510.502 206.23C513.082 205.285 514.286 204.582 515.74 202.215C516.829 197.95 516.752 193.863 516.689 189.48C516.689 188.605 516.688 187.73 516.687 186.828C516.642 180.371 516.642 180.371 515.502 179.23Z" fill="white"/>
<path d="M497.502 135.23C496.842 135.23 496.182 135.23 495.502 135.23C494.925 136.159 494.347 137.087 493.752 138.043C491.101 141.799 489.825 142.714 485.502 144.23C483.317 144.519 481.129 144.788 478.94 145.043C471.915 145.989 471.915 145.989 469.19 149.168C467.503 152.23 467.503 152.23 467.503 155.23C478.206 155.579 485.296 154.386 493.502 147.23C496.742 144.072 497.453 142.986 497.752 138.418C497.67 137.366 497.587 136.314 497.502 135.23Z" fill="#AF2F35"/>
<path d="M521.502 207.23C520.512 207.23 519.522 207.23 518.502 207.23C518.381 207.981 518.26 208.731 518.135 209.504C517.053 216.109 515.865 222.677 514.502 229.23C518.049 230.413 520.477 230.124 524.189 229.793C525.369 229.691 526.548 229.589 527.764 229.484C529.119 229.359 529.119 229.359 530.502 229.23C530.988 224.499 529.285 221.174 527.127 217.105C526.81 216.485 526.493 215.865 526.166 215.227C524.733 212.451 523.236 209.832 521.502 207.23Z" fill="white"/>
<path d="M519.502 181.23C519.788 182.222 520.074 183.213 520.369 184.234C521.502 188.2 522.571 192.181 523.627 196.168C523.809 196.852 523.99 197.536 524.178 198.24C524.62 199.903 525.061 201.567 525.502 203.23C529.673 201.364 531.342 199.32 533.502 195.23C534.314 191.793 534.314 191.793 533.502 188.23C529.434 183.818 525.69 180.692 519.502 181.23Z" fill="white"/>
<path d="M535.502 204.23C535.665 205.048 535.829 205.865 535.998 206.707C536.571 210.718 536.612 214.563 536.564 218.605C536.56 219.342 536.555 220.078 536.551 220.836C536.539 222.634 536.521 224.432 536.502 226.23C544.05 223.859 544.05 223.859 546.502 220.23C546.835 215.984 546.225 214.22 543.709 210.777C538.057 204.23 538.057 204.23 535.502 204.23Z" fill="white"/>
<path d="M503.502 212.23C500.362 213.8 500.081 216.455 498.877 219.668C498.431 220.842 497.985 222.017 497.526 223.227C496.502 226.23 496.502 226.23 496.502 228.23C502.937 228.725 502.937 228.725 509.502 229.23C509.502 223.786 509.436 222.346 507.065 217.918C506.612 217.056 506.16 216.193 505.694 215.305C504.502 213.23 504.502 213.23 503.502 212.23Z" fill="white"/>
<path d="M494.502 141.23C493.471 141.849 492.44 142.468 491.377 143.105C485.83 146.245 480.772 147.457 474.456 147.887C472.503 148.23 472.503 148.23 470.503 150.23C470.503 151.55 470.503 152.87 470.503 154.23C478.448 153.718 486.598 152.306 492.627 146.668C494.502 144.23 494.502 144.23 494.502 141.23Z" fill="#E81E27"/>
<path d="M429.003 221.23C429.003 221.23 428.154 220.23 428.003 224.73C427.975 225.555 428.04 232.893 428.003 233.73C427.503 237.73 426.503 237.23 429.503 235.731C435.003 232.231 434.503 231.731 438.003 231.231C436.003 228.73 434.498 228.26 433.503 227.23C433.359 227.081 431.647 225.417 431.503 225.23C428.396 221.209 429.003 221.23 429.003 221.23Z" fill="white"/>
<path d="M402.503 232.23C401.003 235.73 399.503 241.231 400.003 246.231C405.503 246.231 406.628 246.856 410.003 244.731C406.003 238.731 404.503 236.73 402.503 232.23Z" fill="white"/>
<path d="M430.503 190.23C419.945 190.64 419.945 190.64 415.503 195.23C415.833 196.88 416.163 198.53 416.503 200.23C421.123 197.59 425.743 194.95 430.503 192.23C430.503 191.57 430.503 190.91 430.503 190.23Z" fill="white"/>
<path d="M198.438 10.8125C199.828 10.7912 199.828 10.7912 201.246 10.7695C204 11 204 11 206.309 12.0273C209.511 13.1848 211.919 13.0418 215.281 12.8694C224.415 12.4041 230.472 13.4218 238 19C238.786 19.5414 239.573 20.0828 240.383 20.6406C246.787 25.2864 254.066 31.451 257 39C257.527 42.7233 257.562 46.2794 257 50C254.562 53.125 254.562 53.125 252 55C251.67 55.33 251.34 55.66 251 56C241.828 56.6551 234.875 53.7627 227.043 49.1836C225.064 48.0369 223.056 47.0024 221 46C221 47.65 221 49.3 221 51C221.583 51.2307 222.165 51.4615 222.766 51.6992C225.513 52.7923 228.257 53.8961 231 55C231.915 55.3622 232.83 55.7245 233.773 56.0977C240.518 58.8233 247.01 61.9212 253.481 65.2334C256.934 66.9966 260.369 68.6358 264 70C264.25 69.4302 264.5 68.8605 264.758 68.2734C269.413 59.7536 275.54 55.1462 284.5 52C295.558 50.097 302 53.5 311.926 58.2617C325.462 62.6049 332.633 67.7768 339.312 80.5C340.53 84.9257 341.058 88.8792 338.984 93.0352C336.811 96.2229 335.752 97.7494 332 99C325.561 99.6778 321.889 98.2994 316.297 95.0938C313.822 93.7134 313.822 93.7134 310 94C308.432 95.3301 308.432 95.3301 307.25 97.1875C306.822 97.7792 306.394 98.3709 305.953 98.9805C304.727 101.578 304.542 103.16 305 106C306.748 107.879 306.748 107.879 309.125 109.375C315.879 114.284 321.212 119.986 324 128C324.388 132.085 324.004 136.118 323.668 140.197C323.348 144.705 323.348 144.705 325.261 148.606C327.055 150.135 327.055 150.135 330 152C333.694 155.889 334.38 159.161 334.688 164.375C334.494 170.221 333.28 173.371 329.074 177.414C322.398 182.519 316.344 184.16 308 184C310.799 187.806 313.869 190.712 317.512 193.668C320.128 196.01 320.016 197.243 320.25 200.875C320.224 204.475 319.619 206.381 317 209C317.41 209.436 317.82 209.871 318.242 210.32C323.753 216.412 325.422 221.386 325.262 229.602C324.904 232.882 323.725 235.214 322 238C321.608 238.784 321.216 239.568 320.812 240.375C320.544 240.911 320.276 241.447 320 242C323.984 239.837 333.39 238.288 336.5 235C337.16 235.33 338 236.205 338.5 236.705C334.359 242.481 324.026 245.188 318 249C319.398 252.409 320.85 253.874 324 255.75C324.701 256.178 325.402 256.606 326.125 257.047C327.947 258.151 327.947 258.151 330 258C330.266 257.469 330.531 256.938 330.805 256.391C334 250 334 250 335.094 247.969C336.425 245.077 336.138 238.14 336.5 235C341 236.62 339.474 245.618 339 250C337.994 254.793 336.766 259.529 335.316 264.207C334.816 267.043 336.504 268.64 338 271C340.406 278.656 339.589 286.912 336 294C333.447 298.578 329.675 302.172 325.188 304.438C324.294 304.89 323.401 305.342 322.48 305.809C318.475 307.732 315.467 308.136 311.062 308.125C310.022 308.128 308.982 308.13 307.91 308.133C305.423 308.019 303.369 307.719 301 307C300.943 307.531 300.887 308.062 300.828 308.609C299.607 312.135 297.242 314.556 294.75 317.25C294.219 317.824 293.689 318.398 293.142 318.99C287.784 324.565 281.901 328.476 275 332C273.93 332.558 272.86 333.116 271.758 333.691C266.938 335.37 262.749 335.403 257.688 335.312C256.801 335.316 255.915 335.319 255.002 335.322C249.528 335.278 244.538 334.645 239.227 333.311C235.918 332.849 233.538 333.884 230.48 335.062C207.572 343.721 180.46 340.041 158.375 330.688C147.27 325.651 135.576 317.467 128.215 307.609C127.484 307.078 126.753 306.547 126 306C122.558 306.607 122.558 306.607 120.212 307.383C109.047 310.496 95.9857 308.429 86 303C83.0892 301.219 80.537 299.278 78 297C77.4199 296.5 76.8398 296 76.2422 295.484C67.7739 287.662 61.9438 277.794 59.168 266.664C57.951 262.846 56.3689 260.037 54.1875 256.688C45.6747 243.236 45.6747 243.236 44.043 235.965C43.0441 231.683 42.011 227.938 40 224C35.848 221.433 31.7693 220.771 27 220C25.4424 219.483 23.8964 218.928 22.375 218.312C19.5549 217.216 18.5 217 15.5 214.5C17.2799 213.017 19.6266 211.113 21.5 209.75C23.0801 208.593 24.6594 207.434 26.218 206.249C28 205 28 205 30.1628 203.888C32.6641 202.456 34.2386 201.296 36 199C36.9308 194.724 36.9586 190.578 36.8586 186.212C36.7812 182.709 36.8365 179.207 36.875 175.703C36.8791 175.023 36.8833 174.342 36.8875 173.641C36.9924 162.467 39.5924 152.247 43.4258 141.77C44.2792 137.653 43.0378 135.61 40.8132 132.158C39.3831 130.043 37.9178 127.956 36.4375 125.875C35.4329 124.458 34.4314 123.039 33.4336 121.617C32.9907 120.994 32.5478 120.372 32.0916 119.73C31 118 31 118 30 115C41.88 114.01 41.88 114.01 54 113C54.99 110.69 55.98 108.38 57 106C62.7262 94.732 69.9245 84.6754 78 75C78.6342 74.224 79.2684 73.448 79.9219 72.6484C82.1453 69.9738 84.0875 67.9417 87 66C86.6612 58.953 85.2279 52.3991 83.3721 45.623C82.3992 41.9923 81.7744 38.7632 82 35C87.6087 35.8764 92.7339 38.0057 97.9023 40.2734C109.176 45.1926 114.837 45.5067 126.219 41.2266C134.366 38.5839 142.908 38.7174 151.398 38.3945C158.257 38.1594 158.257 38.1594 165 37C166.228 34.7674 166.228 34.7674 167 32C172.261 22.8943 180.818 14.7111 190.957 11.3516C193.474 10.9185 195.884 10.8302 198.438 10.8125Z" fill="#232122"/>
<path d="M178.012 157C177.682 157.99 177.352 158.98 177.012 160C175.878 160.392 174.744 160.784 173.575 161.188C164.464 164.339 156.968 171.888 152.012 180C150.144 183.932 148.513 187.914 147.012 192C152.336 177.5 161.469 172.856 166.325 169.313C174.289 165.423 180.895 163.297 189.825 163.438C190.784 163.444 191.743 163.451 192.731 163.458C200.781 163.673 206.763 165.482 214.012 169C215.009 169.321 216.005 169.642 217.032 169.973C226.509 173.239 234.494 180.587 242.012 187C241.27 185.824 241.27 185.824 240.512 184.625C239.012 182 239.012 182 239.012 180C250.524 178.672 259.668 186.072 268.329 192.852C269.657 193.915 269.657 193.915 271.012 195C271.681 195.503 272.35 196.005 273.04 196.523C283.215 204.507 288.92 215.777 292.012 228C292.342 223.71 292.672 219.42 293.012 215C294.601 214.691 296.189 214.381 297.825 214.063C300.657 213.511 303.27 212.914 306.012 212C309.325 211.375 309.325 211.375 313.012 212C318.581 218.151 320.411 223.68 320.372 231.813C319.826 236.656 317.768 240.068 315.012 244C314.352 244.99 313.692 245.98 313.012 247C311.692 247 310.372 247 309.012 247C308.283 244.326 306.139 229.5 303.5 229.5C303.09 230.115 301.193 234.23 300.77 234.863C297.391 239.932 297.391 239.932 294.012 245C289.9 244.615 286.161 243.317 282.68 241.129C279.492 237.059 280.05 231.594 280.048 226.617C280.198 223.045 280.198 223.045 279.012 220C278.352 220 277.692 220 277.012 220C276.075 221.44 275.139 222.882 274.216 224.332C272.166 227.174 269.876 228.971 267.012 231C265.692 231 264.372 231 263.012 231C262.887 224.596 262.887 224.596 263.512 221.625C265.312 212.176 262.663 203.98 260.012 195C257.329 197.477 255.392 200.248 253.325 203.25C249.081 209.151 244.038 215.372 237.012 218C234.762 217.625 234.762 217.625 233.012 217C232.883 215.909 232.883 215.909 232.751 214.797C230.753 200.501 225.634 190.575 215.012 181C212.121 178.986 209.232 177.415 206.012 176C205.435 175.642 203 174.045 200 173.5C189 171.5 180.29 173.59 172.348 181.699C169.395 184.575 167.113 186.999 164.325 190.375C152.322 206.202 150.501 222.803 150.012 242C152 234.5 151.5 232.5 152 230C152.646 226.769 152 227.5 154.012 225C158.025 226.816 161.059 229.421 164.403 232.246C172.343 237.583 180.065 237.411 189.276 237.281C191.507 237.25 193.738 237.24 195.969 237.234C202.039 237.196 207.961 237.04 213.986 236.229C217.44 235.839 220.888 235.817 224.36 235.797C225.522 235.788 225.522 235.788 226.707 235.78C228.338 235.77 229.969 235.764 231.6 235.76C234.045 235.75 236.488 235.719 238.932 235.688C252.557 235.592 265.43 236.65 277.512 243.563C278.701 244.216 278.701 244.216 279.914 244.882C290.888 251.014 301.283 258.037 311.012 266C308.922 262.67 307.093 260.079 304.262 257.313C302.012 255 302.012 255 302.012 252C305.026 252.963 308.021 253.972 311.012 255C312.167 255.392 313.322 255.784 314.512 256.188C321.495 259.803 328.078 265.311 330.676 272.953C331.722 279.321 332.237 285.81 328.825 291.5C325.829 295.591 322.2 298.208 318.012 301C301.621 303.13 290.505 297.913 277.512 288.438C272.872 284.786 268.369 280.985 264.012 277C272.735 288.855 283.158 296.862 296.012 304C291.749 315.792 281.073 321.758 270.262 326.938C263.208 329.778 256.499 329.46 249.012 329C249.012 328.34 249.012 327.68 249.012 327C249.774 326.648 250.536 326.296 251.321 325.934C257.566 322.947 263.222 319.976 268.512 315.5C270.636 313.891 271.012 314 272.012 312C271.5 312.282 270.987 312.564 270.459 312.854C252.603 322.618 252.603 322.618 243.751 325.184C241.486 325.859 239.357 326.631 237.161 327.492C225.253 331.995 212.6 332.278 200.012 332.312C198.784 332.318 197.556 332.323 196.291 332.329C187.505 332.26 179.111 331.608 170.95 328.125C170.118 327.771 169.287 327.416 168.43 327.051C167.632 326.704 166.835 326.357 166.012 326C165.307 325.725 164.602 325.451 163.876 325.168C152.145 320.419 142.012 312.771 133.012 304C134.427 300.591 134.725 300.125 138.325 298.562C139.249 298.214 139.249 298.214 140.192 297.859C143.055 296.508 144.931 294.333 147.012 292C146.551 292.315 146.089 292.629 145.614 292.953C131.962 301.911 117.131 304.614 101.012 303C89.6272 300.57 81.3022 293.953 74.6374 284.562C65.2784 269.334 63.4172 250.851 67.5 233.599C72.5526 214.482 81.1429 199.083 95.0124 185C95.7704 184.218 96.5284 183.435 97.3093 182.629C109.856 170.493 126.73 161.226 143.989 158.359C148 157.5 151 156.786 155 156.5C169 155.5 169.829 154.574 178.012 157Z" fill="white"/>
<path d="M210.313 19.125C214.866 21.1695 218.953 24.1055 223 27C221.35 24.69 219.7 22.38 218 20C222.955 18.7611 225.632 19.7062 230 22C237.707 26.9535 246.574 33.0017 249.711 42.0508C250.063 43.9375 250.063 43.9375 250 47C248 49 248 49 245.336 49.3594C241.19 48.9127 238.171 47.2955 234.625 45.25C233.285 44.5102 231.945 43.7706 230.605 43.0312C228.647 41.9314 226.692 40.8258 224.738 39.7187C214.471 34.1952 202.606 31.3688 191 33C185.884 34.7238 183.029 37.3982 180.5 42.125C179.316 44.7484 179 46.0503 179 49C179.364 48.4689 179.727 47.9378 180.102 47.3906C183.252 42.964 185.923 39.2566 191 37C199.319 35.8273 206.452 37.474 214 41C215 42 215 42 215.125 45C215.003 47.9168 213.765 50.1141 213.438 53.0625C213.293 54.3619 213.149 55.6612 213 57C211.395 56.8585 209.791 56.7116 208.188 56.5625C207.294 56.4813 206.401 56.4001 205.48 56.3164C191.789 54.5699 181.522 55.574 170 64C167.756 66.1782 165.848 68.4814 164 71C163.381 71.8044 162.763 72.6087 162.125 73.4375C161.568 74.2109 161.568 74.2109 161 75C161.33 75.33 161.66 75.66 162 76C162.766 75.2208 162.766 75.2208 163.547 74.4258C173.806 64.5854 185.087 61.4759 198.949 61.7187C204.214 61.9623 208.377 63.5331 213 66C213.709 66.3274 214.418 66.6548 215.148 66.9922C227.347 73.0252 257.06 109.5 264 121C262.034 116.651 260.029 112.32 258 108C257.69 107.337 257.379 106.674 257.06 105.991C252.816 96.9982 248.323 88.7478 242 81C241.278 80.1144 240.556 79.2288 239.813 78.3164C235.537 73.321 231.33 69.4947 225.652 66.1562C222.931 64.252 222.533 63.1318 219 61.7187C219 61.0587 219 59.68 219 59C224.587 59.573 229.005 61.5995 234 64C234.839 64.388 235.678 64.776 236.543 65.1758C262.352 77.5158 289.422 94.2855 302 121C302.371 122.323 302.717 123.655 303 125C302.337 118.937 302.337 118.937 301 113C307.945 115.231 310.928 120.961 314.875 126.75C318.754 134.508 318.107 146.717 316.363 155.039C315.67 157.061 314.846 159.037 314 161C313.67 162.32 313.34 163.64 313 165C316.465 159.555 316.465 159.555 320 154C324.657 155.164 325.501 156.149 328 159.977C329.717 163.451 330.129 166.265 329 170C324.497 176.999 318.972 180.661 311.063 182.766C306.378 183.298 303.367 181.814 299.688 179.062C295.485 176.122 292.024 174.913 287 174C287 174.66 287 175.32 287 176C288.65 176.66 290.3 177.32 292 178C292 178.66 292 179.32 292 180C291.047 180.037 290.095 180.075 289.113 180.113C287.859 180.179 286.605 180.245 285.313 180.312C283.45 180.4 283.45 180.4 281.551 180.488C276.501 181.216 273.386 183.257 270 187C268.987 186.476 268.987 186.476 267.953 185.941C267.061 185.486 266.169 185.031 265.25 184.562C263.927 183.884 263.927 183.884 262.578 183.191C258.824 181.456 255.865 180.882 251.75 181C247.404 181.058 243.299 180.625 239 180C240.98 182.97 240.98 182.97 243 186C242.67 186.66 242.34 187.32 242 188C241.261 187.359 240.523 186.719 239.762 186.059C226.981 175.088 226.981 175.088 211.582 168.703C209 168 209 168 205.375 166.453C162.637 150.207 183.5 155.5 178 157C174.21 153.589 167 154 163 154C135.106 155.607 99.5 166 83 184C80.8342 157.448 91.1149 127.978 104 105C104.353 104.369 104.706 103.738 105.07 103.088C113.202 88.74 122.551 75.8658 134 64C139.449 58.1287 145.545 53.0988 151.949 48.2969C154.873 46.0953 158.127 42 162 42C161.34 44.64 160.68 47.28 160 50C160.557 49.166 161.114 48.3319 161.688 47.4727C172.824 30.9653 187.796 11.4375 210.313 19.125Z" fill="#939397"/>
<path d="M177 74C188.303 72.9178 196.465 76.0838 205.25 83.1875C213.165 90.8063 218.594 100.371 223.688 110C224.501 111.504 224.501 111.504 225.33 113.039C235 131.096 235 131.096 235 136C235.66 136 236.32 136 237 136C237.508 137.051 238.016 138.101 238.539 139.184C245.561 154.275 245.561 154.275 257 166C261.693 167.564 266.115 167.82 271 167C276.032 164.086 280.239 160.062 283 155C283.66 155 283.32 155 284 155C281.9 162.531 279.672 168.852 272.688 172.938C264.419 175.32 256.645 173.822 249 170C245 168.703 243.053 169.762 241.09 170.344C237.654 171.074 234.503 171.105 231 171C231.615 171.748 232.23 172.495 232.863 173.266C233.672 174.25 234.48 175.235 235.313 176.25C236.113 177.225 236.914 178.199 237.738 179.203C239.544 181.437 241.298 183.687 243 186C242.67 186.66 242.34 187.32 242 188C241.261 187.359 240.523 186.719 239.762 186.059C226.981 175.088 226.981 175.088 211.582 168.703C209 168 209 168 205.375 166.453C200.352 164.544 195.514 164.465 190.188 164.5C189.214 164.504 188.241 164.507 187.238 164.511C179.884 164.681 174.217 165.895 168 170C166.928 170.619 165.855 171.238 164.75 171.875C157.806 177.241 149.821 183.536 147 192C146.34 192 147.68 192 147 192C148.91 180.758 155.853 171.575 164.887 164.852C168.768 162.313 176.009 160.982 178 157C175.36 156.67 173.22 155.34 170.5 155C170.5 154.01 170 154.02 170 153C168.397 151.37 168.397 151.37 166.313 149.812C160.596 145.017 156.718 139.34 155 132C154.925 129.668 154.907 127.331 155 125C155.66 125 156.32 125 157 125C157.329 125.773 157.657 126.547 157.996 127.344C163.541 139.486 171.212 145.183 183 151C182.53 150.345 182.059 149.69 181.574 149.016C173.155 136.674 171.399 123.776 173.387 109.156C174.616 103.254 176.449 99.8269 179 96C181.604 92.0944 186.246 86.2538 189.5 83C187.819 81.8026 186.147 80.5955 184.457 79.4102C181.921 77.9544 179.878 77.4039 177 77C177 76.01 177 75.02 177 74Z" fill="#232223"/>
<path d="M192 86C194.696 86.1775 195.82 86.8304 197.789 88.6875C206.414 99.5516 215.135 112.923 220 126C219.67 126.99 219.34 127.98 219 129C216.36 129 213.72 129 211 129C210.34 127.68 209.68 126.36 209 125C208.01 125 207.02 125 206 125C205.384 133.736 205.519 140.85 211 148C217.638 154.475 223.351 158.062 232.688 158.562C238.804 158.902 238.804 158.902 241 160C241 160.99 241 161.98 241 163C228.61 166.687 216.947 162.915 205.805 157.426C194.51 151.23 186.233 144.389 182 132C181.683 131.113 181.366 130.226 181.039 129.312C177.662 118.655 177.761 108.923 182.496 98.7383C185.108 93.9827 188.167 89.8327 192 86Z" fill="white"/>
<path d="M177 74C188.303 72.9178 196.465 76.0838 205.25 83.1875C213.165 90.8063 218.594 100.371 223.688 110C224.23 111.003 224.772 112.006 225.33 113.039C229.563 120.944 239.864 135.058 238.5 144.438C237.955 148.321 238.517 150.423 240 154C241.32 153.67 242.64 153.34 244 153C243.505 154.98 243.505 154.98 243 157C239.105 158.241 235.174 158.257 231.125 158.312C230.083 158.356 230.083 158.356 229.02 158.4C223.79 158.464 221.051 157.211 217 154C216.276 153.47 215.551 152.94 214.805 152.395C209.804 148.294 206.572 144.36 205 138C204.15 128.7 204.15 128.7 206 125C206.99 125 207.98 125 209 125C209.66 125.99 210.32 126.98 211 128C212.977 128.363 212.977 128.363 215.125 128.188C216.404 128.126 217.682 128.064 219 128C211.482 108.256 206.438 84.3477 188 79.4102C187.223 78.8649 188 79 184.5 78.5C181.963 77.0442 179.878 77.4039 177 77C177 76.01 177 75.02 177 74Z" fill="#222023"/>
<path d="M308.437 63.25C312.293 65.8831 315.045 69.4153 318 73C317.691 72.2781 314.819 67.2438 314.5 66.5C312.786 62.5 312 62.3143 314 63C324.424 66.5739 334.043 78.6047 333.5 90C331.5 92 330 92 326.437 92.4375C319.948 92.2398 315.228 88.4299 309.926 85.0273C303.135 80.7276 296.703 77.3463 289 75C294.514 78.5445 300.902 81.6017 306 87C304.852 89.4871 303.596 91.5676 302 93.8125C299.814 97.2958 298.951 100.037 298 104C297.01 104 296.02 104 295 104C293.309 101.945 293.309 101.945 291.437 99.125C285.765 91.0486 279.393 83.6796 270.496 79.1328C269 78 269 78 268.109 76.0703C268 74 268 74 269.145 72.2969C269.695 71.7864 270.245 71.2759 270.812 70.75C274.082 67.6124 277.567 64.3273 281.375 61.875C282.166 61.3568 282.958 60.8386 283.773 60.3047C293.034 54.8782 300.5 56.5 308.437 63.25Z" fill="#939395"/>
<path d="M338 239C340.528 242.792 339.474 245.618 339 250C337.994 254.793 336.765 259.529 335.316 264.207C334.816 267.043 336.504 268.64 338 271C340.406 278.656 339.589 286.912 336 294C333.478 298.522 329.875 302.07 325.188 304.438C324.294 304.89 323.401 305.342 322.48 305.809C318.372 307.782 315.331 308.111 310.812 308.062C309.726 308.053 308.639 308.044 307.52 308.035C306.688 308.024 305.857 307.512 305 307.5C305 307.17 305 307.34 305 307C308.3 307 311.6 307 315 307C314.67 305.68 314.34 304.36 314 303C310.37 302.67 306.74 302.34 303 302C303 301.67 303 301.34 303 301C303.99 300.997 304.98 300.995 306 300.992C316.043 300.78 316.043 300.78 324.48 295.719C324.982 295.152 325.483 294.584 326 294C326.45 293.495 326.9 292.989 327.363 292.469C331.075 287.265 330.684 281.119 330 275C328.387 268.274 324.175 262.283 318.5 258.5C319.16 257.18 319.32 256.36 320 255C323.558 255.61 326.683 256.578 330 258C330.266 257.469 330.531 256.938 330.805 256.391C334 250 334 250 335.094 247.969C336.425 245.077 337.638 242.14 338 239Z" fill="#242225"/>
<path d="M259.5 198.5C260.332 203.683 261.272 207.252 261.375 212.5C261.412 213.221 261.45 213.941 261.488 214.684C261.565 219.397 260.814 222.98 257.81 226.709C253.95 229.462 249.218 228.701 244.688 228.438C243.147 228.39 243.147 228.39 241.576 228.342C239.048 228.259 236.525 228.145 234 228C235.501 224.795 236.663 223.277 239.625 221.312C246.88 216.5 252 211 259.5 198.5Z" fill="white"/>
<path d="M208 186C211.984 186.376 213.864 188.523 216.562 191.312C217.709 192.482 217.709 192.482 218.879 193.676C224.023 199.313 224.023 199.313 223.934 201.969C222.714 204.622 221.068 206.382 219.062 208.5C216.5 211.216 214.493 213.561 213 217C212.34 217 211.68 217 211 217C206.625 210.437 206.821 202.597 206.812 194.938C206.812 194.175 206.811 193.412 206.81 192.626C206.866 187.134 206.866 187.134 208 186Z" fill="white"/>
<path d="M191 180C195.74 180.127 200.874 180.55 205 183C205.793 184.82 205.793 184.82 206 187C204.926 188.973 204.926 188.973 203.313 191.062C199.753 196.04 197.843 201.2 196 207C193.42 206.054 192.216 205.351 190.762 202.984C189.673 198.72 189.75 194.632 189.813 190.25C189.813 189.375 189.814 188.499 189.814 187.598C189.86 181.14 189.86 181.14 191 180Z" fill="white"/>
<path d="M209 136C209.66 136 210.32 136 211 136C211.577 136.928 212.155 137.856 212.75 138.812C215.401 142.568 216.677 143.483 221 145C223.185 145.289 225.373 145.558 227.562 145.812C234.588 146.759 234.588 146.759 237.312 149.938C239 153 239 153 239 156C228.297 156.348 221.206 155.156 213 148C209.76 144.841 209.05 143.755 208.75 139.188C208.833 138.136 208.915 137.084 209 136Z" fill="#AF2F35"/>
<path d="M185 208C185.99 208 186.98 208 188 208C188.121 208.75 188.242 209.5 188.367 210.273C189.449 216.879 190.637 223.447 192 230C188.453 231.182 186.025 230.893 182.312 230.562C181.133 230.461 179.954 230.359 178.738 230.254C177.383 230.128 177.383 230.128 176 230C175.514 225.268 177.216 221.944 179.375 217.875C179.692 217.255 180.009 216.635 180.336 215.996C181.769 213.22 183.266 210.602 185 208Z" fill="white"/>
<path d="M187 182C186.714 182.991 186.428 183.983 186.133 185.004C185 188.97 183.931 192.951 182.875 196.937C182.693 197.621 182.511 198.305 182.324 199.01C181.882 200.673 181.441 202.336 181 204C176.829 202.133 175.16 200.089 173 196C172.188 192.562 172.188 192.562 173 189C177.067 184.588 180.812 181.461 187 182Z" fill="white"/>
<path d="M171 205C170.836 205.817 170.673 206.635 170.504 207.477C169.93 211.488 169.89 215.332 169.937 219.375C169.942 220.111 169.947 220.847 169.951 221.605C169.963 223.404 169.981 225.202 170 227C162.452 224.629 162.452 224.629 160 221C159.667 216.754 160.277 214.989 162.793 211.547C168.444 205 168.444 205 171 205Z" fill="white"/>
<path d="M203 213C206.14 214.57 206.421 217.224 207.625 220.438C208.071 221.612 208.517 222.786 208.977 223.996C210 227 210 227 210 229C203.565 229.495 203.565 229.495 197 230C197 224.555 197.066 223.115 199.438 218.688C199.89 217.825 200.342 216.963 200.809 216.074C202 214 202 214 203 213Z" fill="white"/>
<path d="M212 142C213.031 142.619 214.062 143.237 215.125 143.875C220.672 147.015 225.73 148.227 232.047 148.656C234 149 234 149 236 151C236 152.32 236 153.64 236 155C228.055 154.487 219.905 153.075 213.875 147.438C212 145 212 145 212 142Z" fill="#E81E27"/>
<path d="M277.5 222C277.5 222 278.349 221 278.5 225.5C278.528 226.324 278.463 233.662 278.5 234.5C279 238.5 280 238 277 236.5C271.5 233 272 232.5 268.5 232C270.5 229.5 272.005 229.029 273 228C273.144 227.851 274.856 226.187 275 226C278.107 221.979 277.5 222 277.5 222Z" fill="white"/>
<path d="M304 233C305.5 236.5 307 242 306.5 247C301 247 299.875 247.625 296.5 245.5C300.5 239.5 302 237.5 304 233Z" fill="white"/>
<path d="M276 191C286.558 191.41 286.558 191.41 291 196C290.67 197.65 290.34 199.3 290 201C285.38 198.36 280.76 195.72 276 193C276 192.34 276 191.68 276 191Z" fill="white"/>
</svg>
